<svg id="Iconly_Light-Outline_Show" data-name="Iconly/Light-Outline/Show" xmlns="http://www.w3.org/2000/svg" width="24" height="24" viewBox="0 0 24 24">
  <g id="Show" transform="translate(2 4)">
    <path id="Combined_Shape" data-name="Combined Shape" d="M10,16.1H10c-4.136,0-7.85-2.9-9.936-7.757a.765.765,0,0,1,0-.591C2.147,2.9,5.861,0,10,0H10c4.136,0,7.851,2.9,9.937,7.757a.75.75,0,0,1,0,.591C17.853,13.2,14.139,16.1,10,16.1ZM1.57,8.051c1.857,4.1,5.009,6.552,8.43,6.554s6.574-2.452,8.429-6.554C16.573,3.951,13.422,1.5,10,1.5S3.427,3.951,1.57,8.051Zm4.519,0A3.911,3.911,0,1,1,10,11.963,3.916,3.916,0,0,1,6.089,8.053Zm1.5,0A2.412,2.412,0,1,0,10,5.641,2.413,2.413,0,0,0,7.589,8.053Z" transform="translate(0 0.001)"/>
  </g>
</svg>
