<svg id="Iconly_Light-Outline_Hide" data-name="Iconly/Light-Outline/Hide" xmlns="http://www.w3.org/2000/svg" width="24" height="24" viewBox="0 0 24 24">
  <g id="Hide" transform="translate(2 3)">
    <path id="Combined_Shape" data-name="Combined Shape" d="M1.583,17.054a.75.75,0,0,1,0-1.06l1.972-1.972A14.765,14.765,0,0,1,.061,8.934a.747.747,0,0,1,0-.593A14.429,14.429,0,0,1,4.22,2.683a9.117,9.117,0,0,1,11.049-.375L17.357.22a.75.75,0,0,1,1.06,1.061L2.643,17.054a.75.75,0,0,1-1.06,0ZM5.15,3.861A12.724,12.724,0,0,0,1.571,8.639,13.022,13.022,0,0,0,4.617,12.96l2.138-2.138a3.871,3.871,0,0,1-.669-2.184,3.912,3.912,0,0,1,6.1-3.247l2-2A7.7,7.7,0,0,0,9.993,2.119,7.775,7.775,0,0,0,5.15,3.861ZM7.586,8.638a2.39,2.39,0,0,0,.261,1.091l3.246-3.246A2.413,2.413,0,0,0,7.586,8.638Zm-.355,7.6A.75.75,0,1,1,7.7,14.815,7.263,7.263,0,0,0,10,15.19c3.428,0,6.561-2.443,8.43-6.554a14.521,14.521,0,0,0-1.581-2.694.75.75,0,1,1,1.2-.9,16.13,16.13,0,0,1,1.892,3.3.743.743,0,0,1,0,.595c-2.1,4.857-5.811,7.756-9.939,7.756A8.773,8.773,0,0,1,7.232,16.239Zm2.6-4.363a.75.75,0,0,1,.6-.872,2.409,2.409,0,0,0,1.932-1.937.75.75,0,0,1,1.477.266A3.919,3.919,0,0,1,10.7,12.479a.767.767,0,0,1-.135.012A.75.75,0,0,1,9.831,11.876Z"/>
  </g>
</svg>
